<svg width="430" height="300" viewBox="0 0 430 300" fill="none" xmlns="http://www.w3.org/2000/svg">
<rect width="430" height="300" fill="#F5F5F5"/>
<path d="M0 5C0 2.23857 2.23858 0 5 0H425C427.761 0 430 2.23858 430 5V295C430 297.761 427.761 300 425 300H5C2.23858 300 0 297.761 0 295V5Z" fill="#0D1927"/>
<path d="M118.344 28.1818H121.947L125.752 37.4659H125.914L129.719 28.1818H133.322V42H130.488V33.006H130.374L126.798 41.9325H124.868L121.292 32.9723H121.177V42H118.344V28.1818ZM140.358 42.2024C139.31 42.2024 138.403 41.9798 137.639 41.5344C136.879 41.0846 136.292 40.4594 135.878 39.6587C135.464 38.8536 135.257 37.9202 135.257 36.8587C135.257 35.7881 135.464 34.8525 135.878 34.0518C136.292 33.2467 136.879 32.6214 137.639 32.1761C138.403 31.7263 139.31 31.5014 140.358 31.5014C141.406 31.5014 142.31 31.7263 143.07 32.1761C143.835 32.6214 144.424 33.2467 144.838 34.0518C145.252 34.8525 145.459 35.7881 145.459 36.8587C145.459 37.9202 145.252 38.8536 144.838 39.6587C144.424 40.4594 143.835 41.0846 143.07 41.5344C142.31 41.9798 141.406 42.2024 140.358 42.2024ZM140.371 39.9759C140.848 39.9759 141.246 39.8409 141.566 39.571C141.885 39.2966 142.126 38.9233 142.288 38.451C142.454 37.9787 142.537 37.4412 142.537 36.8384C142.537 36.2357 142.454 35.6982 142.288 35.2259C142.126 34.7536 141.885 34.3802 141.566 34.1058C141.246 33.8314 140.848 33.6942 140.371 33.6942C139.89 33.6942 139.485 33.8314 139.157 34.1058C138.833 34.3802 138.588 34.7536 138.421 35.2259C138.259 35.6982 138.179 36.2357 138.179 36.8384C138.179 37.4412 138.259 37.9787 138.421 38.451C138.588 38.9233 138.833 39.2966 139.157 39.571C139.485 39.8409 139.89 39.9759 140.371 39.9759ZM155.951 34.5916L153.319 34.7536C153.274 34.5286 153.177 34.3262 153.029 34.1463C152.881 33.9619 152.685 33.8157 152.442 33.7077C152.204 33.5953 151.918 33.5391 151.585 33.5391C151.14 33.5391 150.764 33.6335 150.458 33.8224C150.152 34.0069 150 34.2543 150 34.5646C150 34.812 150.099 35.0212 150.296 35.1921C150.494 35.363 150.834 35.5002 151.315 35.6037L153.191 35.9815C154.199 36.1884 154.95 36.5213 155.445 36.9801C155.939 37.4389 156.187 38.0417 156.187 38.7884C156.187 39.4676 155.987 40.0636 155.586 40.5763C155.19 41.0891 154.646 41.4895 153.953 41.7773C153.265 42.0607 152.471 42.2024 151.572 42.2024C150.2 42.2024 149.107 41.9168 148.293 41.3455C147.483 40.7698 147.008 39.9871 146.869 38.9975L149.696 38.8491C149.781 39.2674 149.988 39.5868 150.317 39.8072C150.645 40.0231 151.066 40.131 151.578 40.131C152.082 40.131 152.487 40.0343 152.793 39.8409C153.103 39.643 153.261 39.3888 153.265 39.0785C153.261 38.8176 153.15 38.6039 152.935 38.4375C152.719 38.2666 152.386 38.1361 151.936 38.0462L150.141 37.6886C149.129 37.4862 148.376 37.1353 147.881 36.636C147.391 36.1367 147.146 35.5002 147.146 34.7266C147.146 34.0608 147.325 33.4873 147.685 33.006C148.05 32.5247 148.56 32.1536 149.217 31.8928C149.878 31.6319 150.652 31.5014 151.538 31.5014C152.847 31.5014 153.877 31.7781 154.628 32.3313C155.384 32.8846 155.825 33.638 155.951 34.5916ZM163.509 31.6364V33.7955H157.268V31.6364H163.509ZM158.685 29.1534H161.559V38.8153C161.559 39.0807 161.6 39.2876 161.681 39.4361C161.762 39.58 161.874 39.6812 162.018 39.7397C162.166 39.7982 162.337 39.8274 162.531 39.8274C162.666 39.8274 162.801 39.8162 162.936 39.7937C163.07 39.7667 163.174 39.7464 163.246 39.733L163.698 41.8718C163.554 41.9168 163.352 41.9685 163.091 42.027C162.83 42.09 162.513 42.1282 162.139 42.1417C161.447 42.1687 160.839 42.0765 160.318 41.8651C159.8 41.6536 159.398 41.3253 159.11 40.88C158.822 40.4347 158.68 39.8724 158.685 39.1932V29.1534ZM178.368 28.1818H181.29V37.1555C181.29 38.1631 181.049 39.0447 180.568 39.8004C180.091 40.5561 179.423 41.1454 178.564 41.5682C177.705 41.9865 176.704 42.1957 175.561 42.1957C174.414 42.1957 173.411 41.9865 172.552 41.5682C171.693 41.1454 171.025 40.5561 170.548 39.8004C170.071 39.0447 169.833 38.1631 169.833 37.1555V28.1818H172.754V36.9059C172.754 37.4322 172.869 37.9 173.098 38.3093C173.332 38.7186 173.661 39.0402 174.084 39.2741C174.506 39.508 174.999 39.625 175.561 39.625C176.128 39.625 176.62 39.508 177.039 39.2741C177.462 39.0402 177.788 38.7186 178.017 38.3093C178.251 37.9 178.368 37.4322 178.368 36.9059V28.1818ZM192.262 34.5916L189.631 34.7536C189.586 34.5286 189.489 34.3262 189.341 34.1463C189.192 33.9619 188.996 33.8157 188.754 33.7077C188.515 33.5953 188.23 33.5391 187.897 33.5391C187.451 33.5391 187.076 33.6335 186.77 33.8224C186.464 34.0069 186.311 34.2543 186.311 34.5646C186.311 34.812 186.41 35.0212 186.608 35.1921C186.806 35.363 187.145 35.5002 187.627 35.6037L189.502 35.9815C190.51 36.1884 191.261 36.5213 191.756 36.9801C192.251 37.4389 192.498 38.0417 192.498 38.7884C192.498 39.4676 192.298 40.0636 191.898 40.5763C191.502 41.0891 190.958 41.4895 190.265 41.7773C189.577 42.0607 188.783 42.2024 187.883 42.2024C186.511 42.2024 185.418 41.9168 184.604 41.3455C183.794 40.7698 183.32 39.9871 183.18 38.9975L186.007 38.8491C186.093 39.2674 186.3 39.5868 186.628 39.8072C186.957 40.0231 187.377 40.131 187.89 40.131C188.394 40.131 188.799 40.0343 189.104 39.8409C189.415 39.643 189.572 39.3888 189.577 39.0785C189.572 38.8176 189.462 38.6039 189.246 38.4375C189.03 38.2666 188.697 38.1361 188.248 38.0462L186.453 37.6886C185.441 37.4862 184.687 37.1353 184.192 36.636C183.702 36.1367 183.457 35.5002 183.457 34.7266C183.457 34.0608 183.637 33.4873 183.997 33.006C184.361 32.5247 184.872 32.1536 185.528 31.8928C186.19 31.6319 186.963 31.5014 187.849 31.5014C189.158 31.5014 190.188 31.7781 190.94 32.3313C191.695 32.8846 192.136 33.638 192.262 34.5916ZM199.031 42.2024C197.965 42.2024 197.047 41.9865 196.278 41.5547C195.514 41.1184 194.924 40.5021 194.511 39.706C194.097 38.9053 193.89 37.9585 193.89 36.8654C193.89 35.7994 194.097 34.8638 194.511 34.0586C194.924 33.2534 195.507 32.6259 196.258 32.1761C197.014 31.7263 197.9 31.5014 198.916 31.5014C199.6 31.5014 200.237 31.6116 200.826 31.832C201.42 32.0479 201.937 32.3741 202.378 32.8104C202.823 33.2467 203.169 33.7955 203.417 34.4567C203.664 35.1134 203.788 35.8826 203.788 36.7642V37.5536H195.037V35.7724H201.082C201.082 35.3585 200.992 34.992 200.812 34.6726C200.632 34.3532 200.383 34.1036 200.063 33.9237C199.749 33.7392 199.382 33.647 198.964 33.647C198.527 33.647 198.141 33.7482 197.803 33.9506C197.47 34.1486 197.209 34.4162 197.021 34.7536C196.832 35.0864 196.735 35.4575 196.73 35.8668V37.5604C196.73 38.0732 196.825 38.5162 197.014 38.8896C197.207 39.2629 197.479 39.5508 197.83 39.7532C198.181 39.9556 198.597 40.0568 199.078 40.0568C199.398 40.0568 199.69 40.0118 199.956 39.9219C200.221 39.8319 200.448 39.697 200.637 39.517C200.826 39.3371 200.97 39.1167 201.069 38.8558L203.727 39.0312C203.592 39.67 203.316 40.2277 202.897 40.7045C202.483 41.1768 201.948 41.5457 201.291 41.8111C200.639 42.072 199.886 42.2024 199.031 42.2024ZM209.483 42.1687C208.695 42.1687 207.982 41.9663 207.344 41.5614C206.709 41.1521 206.206 40.5516 205.832 39.7599C205.463 38.9638 205.279 37.9877 205.279 36.8317C205.279 35.6442 205.47 34.6568 205.853 33.8697C206.235 33.078 206.743 32.4865 207.377 32.0952C208.016 31.6993 208.716 31.5014 209.476 31.5014C210.056 31.5014 210.54 31.6004 210.926 31.7983C211.318 31.9917 211.633 32.2346 211.871 32.527C212.114 32.8149 212.298 33.0982 212.424 33.3771H212.512V28.1818H215.38V42H212.546V40.3402H212.424C212.289 40.6281 212.098 40.9137 211.851 41.1971C211.608 41.476 211.291 41.7076 210.899 41.892C210.513 42.0765 210.04 42.1687 209.483 42.1687ZM210.393 39.8814C210.857 39.8814 211.248 39.7554 211.567 39.5036C211.891 39.2472 212.139 38.8896 212.31 38.4308C212.485 37.9719 212.573 37.4344 212.573 36.8182C212.573 36.2019 212.487 35.6667 212.316 35.2124C212.145 34.758 211.898 34.4072 211.574 34.1598C211.25 33.9124 210.857 33.7887 210.393 33.7887C209.921 33.7887 209.523 33.9169 209.199 34.1733C208.875 34.4297 208.63 34.785 208.464 35.2393C208.297 35.6937 208.214 36.2199 208.214 36.8182C208.214 37.4209 208.297 37.954 208.464 38.4173C208.635 38.8761 208.88 39.2359 209.199 39.4968C209.523 39.7532 209.921 39.8814 210.393 39.8814ZM222.194 42V28.1818H225.116V39.5913H231.04V42H222.194ZM235.876 42.1957C235.214 42.1957 234.625 42.081 234.108 41.8516C233.591 41.6177 233.181 41.2736 232.88 40.8192C232.583 40.3604 232.435 39.7892 232.435 39.1055C232.435 38.5297 232.54 38.0462 232.752 37.6548C232.963 37.2635 233.251 36.9486 233.615 36.7102C233.98 36.4718 234.394 36.2919 234.857 36.1705C235.325 36.049 235.815 35.9635 236.328 35.9141C236.931 35.8511 237.416 35.7926 237.785 35.7386C238.154 35.6802 238.422 35.5947 238.588 35.4822C238.754 35.3698 238.838 35.2034 238.838 34.983V34.9425C238.838 34.5152 238.703 34.1845 238.433 33.9506C238.167 33.7167 237.79 33.5998 237.299 33.5998C236.782 33.5998 236.371 33.7145 236.065 33.9439C235.759 34.1688 235.556 34.4522 235.457 34.794L232.799 34.5781C232.934 33.9484 233.199 33.4041 233.595 32.9453C233.991 32.482 234.502 32.1267 235.127 31.8793C235.757 31.6274 236.485 31.5014 237.313 31.5014C237.889 31.5014 238.44 31.5689 238.966 31.7038C239.497 31.8388 239.967 32.0479 240.376 32.3313C240.79 32.6147 241.116 32.979 241.354 33.4244C241.593 33.8652 241.712 34.3937 241.712 35.0099V42H238.986V40.5629H238.905C238.739 40.8867 238.516 41.1723 238.237 41.4197C237.958 41.6626 237.623 41.8538 237.232 41.9933C236.841 42.1282 236.388 42.1957 235.876 42.1957ZM236.699 40.212C237.122 40.212 237.495 40.1288 237.819 39.9624C238.143 39.7914 238.397 39.562 238.581 39.2741C238.766 38.9863 238.858 38.6602 238.858 38.2958V37.196C238.768 37.2545 238.644 37.3085 238.487 37.358C238.334 37.4029 238.161 37.4457 237.967 37.4862C237.774 37.5221 237.58 37.5559 237.387 37.5874C237.194 37.6143 237.018 37.6391 236.861 37.6616C236.523 37.7111 236.229 37.7898 235.977 37.8977C235.725 38.0057 235.529 38.1519 235.39 38.3363C235.25 38.5162 235.181 38.7411 235.181 39.011C235.181 39.4023 235.322 39.7015 235.606 39.9084C235.894 40.1108 236.258 40.212 236.699 40.212ZM246.816 36.0085V42H243.942V31.6364H246.681V33.4648H246.803C247.032 32.8621 247.417 32.3853 247.956 32.0344C248.496 31.6791 249.151 31.5014 249.92 31.5014C250.64 31.5014 251.267 31.6589 251.802 31.9737C252.338 32.2886 252.754 32.7384 253.051 33.3232C253.347 33.9034 253.496 34.5961 253.496 35.4013V42H250.622V35.9141C250.626 35.2798 250.464 34.785 250.136 34.4297C249.807 34.0698 249.355 33.8899 248.78 33.8899C248.393 33.8899 248.051 33.9731 247.754 34.1396C247.462 34.306 247.232 34.5489 247.066 34.8683C246.904 35.1831 246.821 35.5632 246.816 36.0085ZM260.43 46.1023C259.499 46.1023 258.701 45.9741 258.035 45.7177C257.374 45.4658 256.848 45.1217 256.456 44.6854C256.065 44.2491 255.811 43.7588 255.694 43.2145L258.352 42.8569C258.433 43.0638 258.561 43.2572 258.737 43.4371C258.912 43.6171 259.144 43.761 259.432 43.869C259.724 43.9814 260.079 44.0376 260.498 44.0376C261.123 44.0376 261.638 43.8847 262.043 43.5788C262.452 43.2775 262.657 42.7714 262.657 42.0607V40.1648H262.535C262.409 40.4527 262.221 40.7248 261.969 40.9812C261.717 41.2376 261.393 41.4467 260.997 41.6087C260.601 41.7706 260.129 41.8516 259.58 41.8516C258.802 41.8516 258.094 41.6716 257.455 41.3118C256.821 40.9474 256.315 40.3919 255.937 39.6452C255.563 38.8941 255.377 37.945 255.377 36.7979C255.377 35.6239 255.568 34.6433 255.95 33.8562C256.333 33.069 256.841 32.4798 257.475 32.0884C258.114 31.6971 258.813 31.5014 259.573 31.5014C260.154 31.5014 260.639 31.6004 261.031 31.7983C261.422 31.9917 261.737 32.2346 261.975 32.527C262.218 32.8149 262.405 33.0982 262.535 33.3771H262.643V31.6364H265.497V42.1012C265.497 42.9828 265.282 43.7205 264.85 44.3143C264.418 44.908 263.82 45.3533 263.055 45.6502C262.295 45.9516 261.42 46.1023 260.43 46.1023ZM260.491 39.6925C260.954 39.6925 261.346 39.5778 261.665 39.3484C261.989 39.1145 262.236 38.7816 262.407 38.3498C262.583 37.9135 262.67 37.3917 262.67 36.7844C262.67 36.1772 262.585 35.6509 262.414 35.2056C262.243 34.7558 261.996 34.4072 261.672 34.1598C261.348 33.9124 260.954 33.7887 260.491 33.7887C260.019 33.7887 259.621 33.9169 259.297 34.1733C258.973 34.4252 258.728 34.776 258.561 35.2259C258.395 35.6757 258.312 36.1952 258.312 36.7844C258.312 37.3827 258.395 37.9 258.561 38.3363C258.732 38.7681 258.977 39.1032 259.297 39.3416C259.621 39.5755 260.019 39.6925 260.491 39.6925ZM274.431 37.5874V31.6364H277.305V42H274.545V40.1175H274.437C274.204 40.7248 273.814 41.2128 273.27 41.5817C272.73 41.9505 272.071 42.1349 271.293 42.1349C270.601 42.1349 269.991 41.9775 269.465 41.6626C268.938 41.3478 268.527 40.9002 268.23 40.32C267.938 39.7397 267.789 39.0447 267.785 38.2351V31.6364H270.659V37.7223C270.664 38.334 270.828 38.8176 271.152 39.1729C271.475 39.5283 271.909 39.706 272.454 39.706C272.8 39.706 273.124 39.6272 273.425 39.4698C273.727 39.3079 273.97 39.0695 274.154 38.7546C274.343 38.4397 274.435 38.0507 274.431 37.5874ZM282.559 42.1957C281.898 42.1957 281.309 42.081 280.792 41.8516C280.274 41.6177 279.865 41.2736 279.564 40.8192C279.267 40.3604 279.118 39.7892 279.118 39.1055C279.118 38.5297 279.224 38.0462 279.435 37.6548C279.647 37.2635 279.935 36.9486 280.299 36.7102C280.663 36.4718 281.077 36.2919 281.54 36.1705C282.008 36.049 282.499 35.9635 283.011 35.9141C283.614 35.8511 284.1 35.7926 284.469 35.7386C284.838 35.6802 285.105 35.5947 285.272 35.4822C285.438 35.3698 285.521 35.2034 285.521 34.983V34.9425C285.521 34.5152 285.386 34.1845 285.116 33.9506C284.851 33.7167 284.473 33.5998 283.983 33.5998C283.466 33.5998 283.054 33.7145 282.748 33.9439C282.442 34.1688 282.24 34.4522 282.141 34.794L279.483 34.5781C279.618 33.9484 279.883 33.4041 280.279 32.9453C280.675 32.482 281.185 32.1267 281.81 31.8793C282.44 31.6274 283.169 31.5014 283.996 31.5014C284.572 31.5014 285.123 31.5689 285.65 31.7038C286.18 31.8388 286.65 32.0479 287.06 32.3313C287.473 32.6147 287.8 32.979 288.038 33.4244C288.276 33.8652 288.396 34.3937 288.396 35.0099V42H285.67V40.5629H285.589C285.422 40.8867 285.2 41.1723 284.921 41.4197C284.642 41.6626 284.307 41.8538 283.915 41.9933C283.524 42.1282 283.072 42.1957 282.559 42.1957ZM283.382 40.212C283.805 40.212 284.179 40.1288 284.502 39.9624C284.826 39.7914 285.08 39.562 285.265 39.2741C285.449 38.9863 285.542 38.6602 285.542 38.2958V37.196C285.452 37.2545 285.328 37.3085 285.17 37.358C285.018 37.4029 284.844 37.4457 284.651 37.4862C284.458 37.5221 284.264 37.5559 284.071 37.5874C283.877 37.6143 283.702 37.6391 283.544 37.6616C283.207 37.7111 282.912 37.7898 282.661 37.8977C282.409 38.0057 282.213 38.1519 282.074 38.3363C281.934 38.5162 281.864 38.7411 281.864 39.011C281.864 39.4023 282.006 39.7015 282.289 39.9084C282.577 40.1108 282.942 40.212 283.382 40.212ZM295.295 46.1023C294.363 46.1023 293.565 45.9741 292.899 45.7177C292.238 45.4658 291.712 45.1217 291.32 44.6854C290.929 44.2491 290.675 43.7588 290.558 43.2145L293.216 42.8569C293.297 43.0638 293.426 43.2572 293.601 43.4371C293.776 43.6171 294.008 43.761 294.296 43.869C294.588 43.9814 294.944 44.0376 295.362 44.0376C295.987 44.0376 296.502 43.8847 296.907 43.5788C297.316 43.2775 297.521 42.7714 297.521 42.0607V40.1648H297.4C297.274 40.4527 297.085 40.7248 296.833 40.9812C296.581 41.2376 296.257 41.4467 295.861 41.6087C295.465 41.7706 294.993 41.8516 294.444 41.8516C293.666 41.8516 292.958 41.6716 292.319 41.3118C291.685 40.9474 291.179 40.3919 290.801 39.6452C290.428 38.8941 290.241 37.945 290.241 36.7979C290.241 35.6239 290.432 34.6433 290.814 33.8562C291.197 33.069 291.705 32.4798 292.339 32.0884C292.978 31.6971 293.677 31.5014 294.438 31.5014C295.018 31.5014 295.504 31.6004 295.895 31.7983C296.286 31.9917 296.601 32.2346 296.84 32.527C297.083 32.8149 297.269 33.0982 297.4 33.3771H297.508V31.6364H300.362V42.1012C300.362 42.9828 300.146 43.7205 299.714 44.3143C299.282 44.908 298.684 45.3533 297.919 45.6502C297.159 45.9516 296.284 46.1023 295.295 46.1023ZM295.355 39.6925C295.819 39.6925 296.21 39.5778 296.529 39.3484C296.853 39.1145 297.101 38.7816 297.271 38.3498C297.447 37.9135 297.535 37.3917 297.535 36.7844C297.535 36.1772 297.449 35.6509 297.278 35.2056C297.107 34.7558 296.86 34.4072 296.536 34.1598C296.212 33.9124 295.819 33.7887 295.355 33.7887C294.883 33.7887 294.485 33.9169 294.161 34.1733C293.837 34.4252 293.592 34.776 293.426 35.2259C293.259 35.6757 293.176 36.1952 293.176 36.7844C293.176 37.3827 293.259 37.9 293.426 38.3363C293.597 38.7681 293.842 39.1032 294.161 39.3416C294.485 39.5755 294.883 39.6925 295.355 39.6925ZM307.372 42.2024C306.306 42.2024 305.388 41.9865 304.619 41.5547C303.854 41.1184 303.265 40.5021 302.851 39.706C302.438 38.9053 302.231 37.9585 302.231 36.8654C302.231 35.7994 302.438 34.8638 302.851 34.0586C303.265 33.2534 303.848 32.6259 304.599 32.1761C305.355 31.7263 306.241 31.5014 307.257 31.5014C307.941 31.5014 308.577 31.6116 309.167 31.832C309.76 32.0479 310.278 32.3741 310.719 32.8104C311.164 33.2467 311.51 33.7955 311.758 34.4567C312.005 35.1134 312.129 35.8826 312.129 36.7642V37.5536H303.378V35.7724H309.423C309.423 35.3585 309.333 34.992 309.153 34.6726C308.973 34.3532 308.724 34.1036 308.404 33.9237C308.089 33.7392 307.723 33.647 307.305 33.647C306.868 33.647 306.481 33.7482 306.144 33.9506C305.811 34.1486 305.55 34.4162 305.361 34.7536C305.172 35.0864 305.076 35.4575 305.071 35.8668V37.5604C305.071 38.0732 305.166 38.5162 305.355 38.8896C305.548 39.2629 305.82 39.5508 306.171 39.7532C306.522 39.9556 306.938 40.0568 307.419 40.0568C307.739 40.0568 308.031 40.0118 308.296 39.9219C308.562 39.8319 308.789 39.697 308.978 39.517C309.167 39.3371 309.311 39.1167 309.41 38.8558L312.068 39.0312C311.933 39.67 311.656 40.2277 311.238 40.7045C310.824 41.1768 310.289 41.5457 309.632 41.8111C308.98 42.072 308.227 42.2024 307.372 42.2024Z" fill="#EBE303"/>
<path d="M343.257 98.1534C343.615 98.1562 343.973 98.2244 344.331 98.358C344.689 98.4915 345.016 98.7131 345.311 99.0227C345.607 99.3295 345.844 99.7486 346.023 100.28C346.202 100.811 346.291 101.477 346.291 102.278C346.291 103.054 346.217 103.743 346.07 104.345C345.925 104.945 345.714 105.45 345.439 105.862C345.166 106.274 344.834 106.587 344.442 106.8C344.053 107.013 343.612 107.119 343.121 107.119C342.632 107.119 342.196 107.023 341.812 106.83C341.432 106.634 341.119 106.362 340.875 106.016C340.633 105.666 340.479 105.261 340.41 104.801H341.45C341.544 105.202 341.73 105.533 342.008 105.794C342.29 106.053 342.66 106.182 343.121 106.182C343.794 106.182 344.325 105.888 344.714 105.3C345.107 104.712 345.303 103.881 345.303 102.807H345.234C345.075 103.045 344.886 103.251 344.668 103.425C344.449 103.598 344.206 103.732 343.939 103.825C343.672 103.919 343.388 103.966 343.087 103.966C342.587 103.966 342.128 103.842 341.71 103.595C341.295 103.345 340.963 103.003 340.713 102.568C340.466 102.131 340.342 101.631 340.342 101.068C340.342 100.534 340.462 100.045 340.7 99.6023C340.942 99.1562 341.28 98.8011 341.714 98.5369C342.152 98.2727 342.666 98.1449 343.257 98.1534ZM343.257 99.0909C342.899 99.0909 342.577 99.1804 342.29 99.3594C342.006 99.5355 341.78 99.7741 341.612 100.075C341.447 100.374 341.365 100.705 341.365 101.068C341.365 101.432 341.445 101.763 341.604 102.061C341.766 102.357 341.986 102.592 342.264 102.768C342.545 102.942 342.865 103.028 343.223 103.028C343.493 103.028 343.744 102.976 343.977 102.871C344.21 102.763 344.413 102.616 344.587 102.432C344.763 102.244 344.901 102.033 345 101.797C345.099 101.558 345.149 101.31 345.149 101.051C345.149 100.71 345.067 100.391 344.902 100.092C344.74 99.794 344.516 99.5526 344.229 99.3679C343.945 99.1832 343.621 99.0909 343.257 99.0909ZM350.814 107.119C350.171 107.119 349.625 106.945 349.173 106.595C348.721 106.243 348.376 105.733 348.137 105.065C347.899 104.395 347.779 103.585 347.779 102.636C347.779 101.693 347.899 100.888 348.137 100.22C348.379 99.5497 348.725 99.0384 349.177 98.6861C349.632 98.331 350.177 98.1534 350.814 98.1534C351.45 98.1534 351.994 98.331 352.446 98.6861C352.9 99.0384 353.247 99.5497 353.485 100.22C353.727 100.888 353.848 101.693 353.848 102.636C353.848 103.585 353.728 104.395 353.49 105.065C353.251 105.733 352.906 106.243 352.454 106.595C352.002 106.945 351.456 107.119 350.814 107.119ZM350.814 106.182C351.45 106.182 351.944 105.875 352.296 105.261C352.649 104.648 352.825 103.773 352.825 102.636C352.825 101.881 352.744 101.237 352.582 100.706C352.423 100.175 352.193 99.7699 351.892 99.4915C351.593 99.2131 351.234 99.0739 350.814 99.0739C350.183 99.0739 349.69 99.3849 349.335 100.007C348.98 100.626 348.802 101.503 348.802 102.636C348.802 103.392 348.882 104.034 349.041 104.562C349.2 105.091 349.429 105.493 349.727 105.768C350.028 106.044 350.39 106.182 350.814 106.182ZM359.916 105.364V104.903C359.916 104.585 359.981 104.294 360.112 104.03C360.245 103.763 360.439 103.55 360.691 103.391C360.947 103.229 361.257 103.148 361.62 103.148C361.99 103.148 362.299 103.229 362.549 103.391C362.799 103.55 362.988 103.763 363.116 104.03C363.244 104.294 363.308 104.585 363.308 104.903V105.364C363.308 105.682 363.243 105.974 363.112 106.241C362.984 106.506 362.794 106.719 362.541 106.881C362.291 107.04 361.984 107.119 361.62 107.119C361.251 107.119 360.94 107.04 360.687 106.881C360.434 106.719 360.243 106.506 360.112 106.241C359.981 105.974 359.916 105.682 359.916 105.364ZM360.785 104.903V105.364C360.785 105.628 360.848 105.865 360.973 106.075C361.098 106.283 361.314 106.386 361.62 106.386C361.919 106.386 362.129 106.283 362.251 106.075C362.376 105.865 362.439 105.628 362.439 105.364V104.903C362.439 104.639 362.379 104.403 362.26 104.196C362.14 103.986 361.927 103.881 361.62 103.881C361.322 103.881 361.108 103.986 360.977 104.196C360.849 104.403 360.785 104.639 360.785 104.903ZM355.569 100.369V99.9091C355.569 99.5909 355.635 99.2997 355.765 99.0355C355.899 98.7685 356.092 98.5554 356.345 98.3963C356.6 98.2344 356.91 98.1534 357.274 98.1534C357.643 98.1534 357.953 98.2344 358.203 98.3963C358.453 98.5554 358.642 98.7685 358.77 99.0355C358.897 99.2997 358.961 99.5909 358.961 99.9091V100.369C358.961 100.687 358.896 100.98 358.765 101.247C358.637 101.511 358.447 101.724 358.194 101.886C357.944 102.045 357.637 102.125 357.274 102.125C356.904 102.125 356.593 102.045 356.341 101.886C356.088 101.724 355.896 101.511 355.765 101.247C355.635 100.98 355.569 100.687 355.569 100.369ZM356.439 99.9091V100.369C356.439 100.634 356.501 100.871 356.626 101.081C356.751 101.288 356.967 101.392 357.274 101.392C357.572 101.392 357.782 101.288 357.904 101.081C358.029 100.871 358.092 100.634 358.092 100.369V99.9091C358.092 99.6449 358.032 99.4091 357.913 99.2017C357.794 98.9915 357.581 98.8864 357.274 98.8864C356.975 98.8864 356.761 98.9915 356.63 99.2017C356.502 99.4091 356.439 99.6449 356.439 99.9091ZM355.893 107L361.893 98.2727H362.865L356.865 107H355.893Z" fill="white"/>
<path d="M60.1803 88V79.2727H61.2371V83.1591H65.8905V79.2727H66.9473V88H65.8905V84.0966H61.2371V88H60.1803ZM68.5858 80.2102V79.2727H75.1313V80.2102H72.387V88H71.3302V80.2102H68.5858ZM76.7623 79.2727H78.0237L80.9896 86.517H81.0919L84.0578 79.2727H85.3191V88H84.3305V81.3693H84.2453L81.518 88H80.5635L77.8362 81.3693H77.751V88H76.7623V79.2727ZM87.4381 88V79.2727H88.4949V87.0625H92.5517V88H87.4381ZM96.762 88.1193C96.262 88.1193 95.8117 88.0199 95.4111 87.821C95.0106 87.6222 94.6895 87.3494 94.4481 87.0028C94.2066 86.6562 94.0745 86.2614 94.0517 85.8182H95.0745C95.1142 86.2131 95.2932 86.5398 95.6114 86.7983C95.9324 87.054 96.3159 87.1818 96.762 87.1818C97.1199 87.1818 97.4381 87.098 97.7165 86.9304C97.9978 86.7628 98.2179 86.5327 98.377 86.2401C98.539 85.9446 98.6199 85.6108 98.6199 85.2386C98.6199 84.858 98.5361 84.5185 98.3685 84.2202C98.2037 83.919 97.9765 83.6818 97.6867 83.5085C97.3969 83.3352 97.0659 83.2472 96.6938 83.2443C96.4267 83.2415 96.1526 83.2827 95.8713 83.3679C95.5901 83.4503 95.3586 83.5568 95.1767 83.6875L94.1881 83.5682L94.7165 79.2727H99.2506V80.2102H95.6029L95.2961 82.7841H95.3472C95.5262 82.642 95.7506 82.5241 96.0205 82.4304C96.2904 82.3366 96.5716 82.2898 96.8642 82.2898C97.3983 82.2898 97.8742 82.4176 98.2918 82.6733C98.7123 82.9261 99.0418 83.2727 99.2804 83.7131C99.5219 84.1534 99.6427 84.6562 99.6427 85.2216C99.6427 85.7784 99.5177 86.2756 99.2677 86.7131C99.0205 87.1477 98.6796 87.4915 98.2449 87.7443C97.8103 87.9943 97.3159 88.1193 96.762 88.1193Z" fill="white"/>
<rect x="65.2222" y="99" width="260" height="7" rx="3.5" fill="white"/>
<rect x="59.4444" y="99" width="228.222" height="7" rx="3.5" fill="#EBE303"/>
<path d="M343.257 140.153C343.615 140.156 343.973 140.224 344.331 140.358C344.689 140.491 345.016 140.713 345.311 141.023C345.607 141.33 345.844 141.749 346.023 142.28C346.202 142.811 346.291 143.477 346.291 144.278C346.291 145.054 346.217 145.743 346.07 146.345C345.925 146.945 345.714 147.45 345.439 147.862C345.166 148.274 344.834 148.587 344.442 148.8C344.053 149.013 343.612 149.119 343.121 149.119C342.632 149.119 342.196 149.023 341.812 148.83C341.432 148.634 341.119 148.362 340.875 148.016C340.634 147.666 340.479 147.261 340.41 146.801H341.45C341.544 147.202 341.73 147.533 342.009 147.794C342.29 148.053 342.66 148.182 343.121 148.182C343.794 148.182 344.325 147.888 344.714 147.3C345.107 146.712 345.303 145.881 345.303 144.807H345.234C345.075 145.045 344.886 145.251 344.668 145.425C344.449 145.598 344.206 145.732 343.939 145.825C343.672 145.919 343.388 145.966 343.087 145.966C342.587 145.966 342.128 145.842 341.71 145.595C341.295 145.345 340.963 145.003 340.713 144.568C340.466 144.131 340.342 143.631 340.342 143.068C340.342 142.534 340.462 142.045 340.7 141.602C340.942 141.156 341.28 140.801 341.714 140.537C342.152 140.273 342.666 140.145 343.257 140.153ZM343.257 141.091C342.899 141.091 342.577 141.18 342.29 141.359C342.006 141.536 341.78 141.774 341.612 142.075C341.447 142.374 341.365 142.705 341.365 143.068C341.365 143.432 341.445 143.763 341.604 144.061C341.766 144.357 341.986 144.592 342.264 144.768C342.545 144.942 342.865 145.028 343.223 145.028C343.493 145.028 343.744 144.976 343.977 144.871C344.21 144.763 344.413 144.616 344.587 144.432C344.763 144.244 344.901 144.033 345 143.797C345.099 143.558 345.149 143.31 345.149 143.051C345.149 142.71 345.067 142.391 344.902 142.092C344.74 141.794 344.516 141.553 344.229 141.368C343.945 141.183 343.621 141.091 343.257 141.091ZM350.814 149.119C350.172 149.119 349.625 148.945 349.173 148.595C348.721 148.243 348.376 147.733 348.137 147.065C347.899 146.395 347.779 145.585 347.779 144.636C347.779 143.693 347.899 142.888 348.137 142.22C348.379 141.55 348.725 141.038 349.177 140.686C349.632 140.331 350.177 140.153 350.814 140.153C351.45 140.153 351.994 140.331 352.446 140.686C352.9 141.038 353.247 141.55 353.485 142.22C353.727 142.888 353.848 143.693 353.848 144.636C353.848 145.585 353.728 146.395 353.49 147.065C353.251 147.733 352.906 148.243 352.454 148.595C352.002 148.945 351.456 149.119 350.814 149.119ZM350.814 148.182C351.45 148.182 351.944 147.875 352.297 147.261C352.649 146.648 352.825 145.773 352.825 144.636C352.825 143.881 352.744 143.237 352.582 142.706C352.423 142.175 352.193 141.77 351.892 141.491C351.593 141.213 351.234 141.074 350.814 141.074C350.183 141.074 349.69 141.385 349.335 142.007C348.98 142.626 348.802 143.503 348.802 144.636C348.802 145.392 348.882 146.034 349.041 146.562C349.2 147.091 349.429 147.493 349.727 147.768C350.028 148.044 350.39 148.182 350.814 148.182ZM359.916 147.364V146.903C359.916 146.585 359.981 146.294 360.112 146.03C360.245 145.763 360.439 145.55 360.691 145.391C360.947 145.229 361.257 145.148 361.62 145.148C361.99 145.148 362.299 145.229 362.549 145.391C362.799 145.55 362.988 145.763 363.116 146.03C363.244 146.294 363.308 146.585 363.308 146.903V147.364C363.308 147.682 363.243 147.974 363.112 148.241C362.984 148.506 362.794 148.719 362.541 148.881C362.291 149.04 361.984 149.119 361.62 149.119C361.251 149.119 360.94 149.04 360.687 148.881C360.434 148.719 360.243 148.506 360.112 148.241C359.981 147.974 359.916 147.682 359.916 147.364ZM360.785 146.903V147.364C360.785 147.628 360.848 147.865 360.973 148.075C361.098 148.283 361.314 148.386 361.62 148.386C361.919 148.386 362.129 148.283 362.251 148.075C362.376 147.865 362.439 147.628 362.439 147.364V146.903C362.439 146.639 362.379 146.403 362.26 146.196C362.14 145.986 361.927 145.881 361.62 145.881C361.322 145.881 361.108 145.986 360.977 146.196C360.849 146.403 360.785 146.639 360.785 146.903ZM355.569 142.369V141.909C355.569 141.591 355.635 141.3 355.765 141.036C355.899 140.768 356.092 140.555 356.345 140.396C356.6 140.234 356.91 140.153 357.274 140.153C357.643 140.153 357.953 140.234 358.203 140.396C358.453 140.555 358.642 140.768 358.77 141.036C358.897 141.3 358.961 141.591 358.961 141.909V142.369C358.961 142.687 358.896 142.98 358.765 143.247C358.637 143.511 358.447 143.724 358.194 143.886C357.944 144.045 357.637 144.125 357.274 144.125C356.904 144.125 356.593 144.045 356.341 143.886C356.088 143.724 355.896 143.511 355.765 143.247C355.635 142.98 355.569 142.687 355.569 142.369ZM356.439 141.909V142.369C356.439 142.634 356.501 142.871 356.626 143.081C356.751 143.288 356.967 143.392 357.274 143.392C357.572 143.392 357.782 143.288 357.904 143.081C358.029 142.871 358.092 142.634 358.092 142.369V141.909C358.092 141.645 358.032 141.409 357.913 141.202C357.794 140.991 357.581 140.886 357.274 140.886C356.975 140.886 356.761 140.991 356.63 141.202C356.502 141.409 356.439 141.645 356.439 141.909ZM355.893 149L361.893 140.273H362.865L356.865 149H355.893Z" fill="white"/>
<path d="M66.3528 124H65.2959C65.2334 123.696 65.1241 123.429 64.9678 123.199C64.8144 122.969 64.6269 122.776 64.4053 122.619C64.1866 122.46 63.9437 122.341 63.6766 122.261C63.4096 122.182 63.1312 122.142 62.8414 122.142C62.313 122.142 61.8343 122.276 61.4053 122.543C60.9792 122.81 60.6397 123.203 60.3869 123.723C60.1369 124.243 60.0119 124.881 60.0119 125.636C60.0119 126.392 60.1369 127.03 60.3869 127.55C60.6397 128.07 60.9792 128.463 61.4053 128.73C61.8343 128.997 62.313 129.131 62.8414 129.131C63.1312 129.131 63.4096 129.091 63.6766 129.011C63.9437 128.932 64.1866 128.814 64.4053 128.658C64.6269 128.499 64.8144 128.304 64.9678 128.074C65.1241 127.841 65.2334 127.574 65.2959 127.273H66.3528C66.2732 127.719 66.1283 128.118 65.9181 128.47C65.7079 128.822 65.4465 129.122 65.134 129.369C64.8215 129.614 64.4707 129.8 64.0815 129.928C63.6951 130.055 63.2817 130.119 62.8414 130.119C62.0971 130.119 61.4352 129.938 60.8556 129.574C60.2761 129.21 59.8201 128.693 59.4877 128.023C59.1553 127.352 58.9891 126.557 58.9891 125.636C58.9891 124.716 59.1553 123.92 59.4877 123.25C59.8201 122.58 60.2761 122.062 60.8556 121.699C61.4352 121.335 62.0971 121.153 62.8414 121.153C63.2817 121.153 63.6951 121.217 64.0815 121.345C64.4707 121.473 64.8215 121.661 65.134 121.908C65.4465 122.152 65.7079 122.45 65.9181 122.803C66.1283 123.152 66.2732 123.551 66.3528 124ZM72.8332 123.455C72.7821 123.023 72.5747 122.688 72.2111 122.449C71.8474 122.21 71.4014 122.091 70.873 122.091C70.4866 122.091 70.1486 122.153 69.8588 122.278C69.5719 122.403 69.3474 122.575 69.1855 122.794C69.0264 123.013 68.9469 123.261 68.9469 123.54C68.9469 123.773 69.0023 123.973 69.1131 124.141C69.2267 124.305 69.3716 124.443 69.5477 124.554C69.7239 124.662 69.9085 124.751 70.1017 124.822C70.2949 124.891 70.4724 124.946 70.6344 124.989L71.5207 125.227C71.748 125.287 72.0008 125.369 72.2793 125.474C72.5605 125.58 72.829 125.723 73.0847 125.905C73.3432 126.084 73.5562 126.314 73.7239 126.595C73.8915 126.876 73.9753 127.222 73.9753 127.631C73.9753 128.102 73.8517 128.528 73.6045 128.909C73.3602 129.29 73.0023 129.592 72.5307 129.817C72.0619 130.041 71.4923 130.153 70.8219 130.153C70.1969 130.153 69.6557 130.053 69.1983 129.851C68.7437 129.649 68.3858 129.368 68.1244 129.007C67.8659 128.646 67.7196 128.227 67.6855 127.75H68.7764C68.8048 128.08 68.9156 128.352 69.1088 128.568C69.3048 128.781 69.552 128.94 69.8503 129.045C70.1514 129.148 70.4753 129.199 70.8219 129.199C71.2253 129.199 71.5875 129.134 71.9085 129.003C72.2295 128.869 72.4838 128.685 72.6713 128.449C72.8588 128.21 72.9526 127.932 72.9526 127.614C72.9526 127.324 72.8716 127.088 72.7097 126.906C72.5477 126.724 72.3347 126.577 72.0704 126.463C71.8062 126.349 71.5207 126.25 71.2139 126.165L70.1401 125.858C69.4582 125.662 68.9185 125.382 68.5207 125.018C68.123 124.655 67.9241 124.179 67.9241 123.591C67.9241 123.102 68.0562 122.676 68.3204 122.312C68.5875 121.946 68.9454 121.662 69.3943 121.46C69.846 121.256 70.3503 121.153 70.9071 121.153C71.4696 121.153 71.9696 121.254 72.4071 121.456C72.8446 121.655 73.1912 121.928 73.4469 122.274C73.7054 122.621 73.8418 123.014 73.856 123.455H72.8332ZM80.4856 123.455C80.4344 123.023 80.2271 122.688 79.8634 122.449C79.4998 122.21 79.0538 122.091 78.5253 122.091C78.139 122.091 77.8009 122.153 77.5111 122.278C77.2242 122.403 76.9998 122.575 76.8378 122.794C76.6788 123.013 76.5992 123.261 76.5992 123.54C76.5992 123.773 76.6546 123.973 76.7654 124.141C76.879 124.305 77.0239 124.443 77.2001 124.554C77.3762 124.662 77.5609 124.751 77.754 124.822C77.9472 124.891 78.1248 124.946 78.2867 124.989L79.1731 125.227C79.4003 125.287 79.6532 125.369 79.9316 125.474C80.2128 125.58 80.4813 125.723 80.737 125.905C80.9955 126.084 81.2086 126.314 81.3762 126.595C81.5438 126.876 81.6276 127.222 81.6276 127.631C81.6276 128.102 81.504 128.528 81.2569 128.909C81.0126 129.29 80.6546 129.592 80.183 129.817C79.7143 130.041 79.1447 130.153 78.4742 130.153C77.8492 130.153 77.308 130.053 76.8506 129.851C76.3961 129.649 76.0381 129.368 75.7768 129.007C75.5182 128.646 75.3719 128.227 75.3378 127.75H76.4288C76.4572 128.08 76.568 128.352 76.7611 128.568C76.9572 128.781 77.2043 128.94 77.5026 129.045C77.8038 129.148 78.1276 129.199 78.4742 129.199C78.8776 129.199 79.2398 129.134 79.5609 129.003C79.8819 128.869 80.1361 128.685 80.3236 128.449C80.5111 128.21 80.6049 127.932 80.6049 127.614C80.6049 127.324 80.5239 127.088 80.362 126.906C80.2001 126.724 79.987 126.577 79.7228 126.463C79.4586 126.349 79.1731 126.25 78.8663 126.165L77.7924 125.858C77.1106 125.662 76.5708 125.382 76.1731 125.018C75.7753 124.655 75.5765 124.179 75.5765 123.591C75.5765 123.102 75.7086 122.676 75.9728 122.312C76.2398 121.946 76.5978 121.662 77.0467 121.46C77.4984 121.256 78.0026 121.153 78.5594 121.153C79.1219 121.153 79.6219 121.254 80.0594 121.456C80.4969 121.655 80.8435 121.928 81.0992 122.274C81.3577 122.621 81.4941 123.014 81.5083 123.455H80.4856ZM86.1606 130.119C85.5981 130.119 85.0967 130.023 84.6564 129.83C84.2189 129.636 83.8709 129.368 83.6124 129.024C83.3567 128.678 83.2175 128.276 83.1947 127.818H84.2686C84.2913 128.099 84.3879 128.342 84.5584 128.547C84.7288 128.749 84.9518 128.905 85.2274 129.016C85.503 129.126 85.8084 129.182 86.1436 129.182C86.5186 129.182 86.851 129.116 87.1408 128.986C87.4305 128.855 87.6578 128.673 87.8226 128.44C87.9874 128.207 88.0697 127.938 88.0697 127.631C88.0697 127.31 87.9902 127.027 87.8311 126.783C87.672 126.536 87.4391 126.342 87.1322 126.203C86.8254 126.064 86.4504 125.994 86.0072 125.994H85.3084V125.057H86.0072C86.3538 125.057 86.6578 124.994 86.9192 124.869C87.1834 124.744 87.3893 124.568 87.5371 124.341C87.6876 124.114 87.7629 123.847 87.7629 123.54C87.7629 123.244 87.6976 122.987 87.5669 122.768C87.4362 122.55 87.2516 122.379 87.0129 122.257C86.7771 122.135 86.4987 122.074 86.1777 122.074C85.8766 122.074 85.5925 122.129 85.3254 122.24C85.0612 122.348 84.8453 122.506 84.6777 122.713C84.5101 122.918 84.4192 123.165 84.405 123.455H83.3822C83.3993 122.997 83.5371 122.597 83.7956 122.253C84.0541 121.906 84.3922 121.636 84.8098 121.443C85.2302 121.25 85.6919 121.153 86.1947 121.153C86.7345 121.153 87.1976 121.263 87.5839 121.482C87.9703 121.697 88.2672 121.983 88.4746 122.338C88.682 122.693 88.7856 123.077 88.7856 123.489C88.7856 123.98 88.6564 124.399 88.3979 124.746C88.1422 125.092 87.7942 125.332 87.3538 125.466V125.534C87.905 125.625 88.3354 125.859 88.645 126.237C88.9547 126.612 89.1095 127.077 89.1095 127.631C89.1095 128.105 88.9802 128.531 88.7217 128.909C88.466 129.284 88.1166 129.58 87.6734 129.795C87.2302 130.011 86.726 130.119 86.1606 130.119Z" fill="white"/>
<rect x="65.2222" y="141" width="260" height="7" rx="3.5" fill="white"/>
<rect x="59.4445" y="141" width="228.222" height="7" rx="3.5" fill="#0382EB"/>
<path d="M343.257 180.153C343.615 180.156 343.973 180.224 344.331 180.358C344.689 180.491 345.016 180.713 345.311 181.023C345.607 181.33 345.844 181.749 346.023 182.28C346.202 182.811 346.291 183.477 346.291 184.278C346.291 185.054 346.217 185.743 346.07 186.345C345.925 186.945 345.714 187.45 345.439 187.862C345.166 188.274 344.834 188.587 344.442 188.8C344.053 189.013 343.612 189.119 343.121 189.119C342.632 189.119 342.196 189.023 341.812 188.83C341.432 188.634 341.119 188.362 340.875 188.016C340.634 187.666 340.479 187.261 340.41 186.801H341.45C341.544 187.202 341.73 187.533 342.009 187.794C342.29 188.053 342.66 188.182 343.121 188.182C343.794 188.182 344.325 187.888 344.714 187.3C345.107 186.712 345.303 185.881 345.303 184.807H345.234C345.075 185.045 344.886 185.251 344.668 185.425C344.449 185.598 344.206 185.732 343.939 185.825C343.672 185.919 343.388 185.966 343.087 185.966C342.587 185.966 342.128 185.842 341.71 185.595C341.295 185.345 340.963 185.003 340.713 184.568C340.466 184.131 340.342 183.631 340.342 183.068C340.342 182.534 340.462 182.045 340.7 181.602C340.942 181.156 341.28 180.801 341.714 180.537C342.152 180.273 342.666 180.145 343.257 180.153ZM343.257 181.091C342.899 181.091 342.577 181.18 342.29 181.359C342.006 181.536 341.78 181.774 341.612 182.075C341.447 182.374 341.365 182.705 341.365 183.068C341.365 183.432 341.445 183.763 341.604 184.061C341.766 184.357 341.986 184.592 342.264 184.768C342.545 184.942 342.865 185.028 343.223 185.028C343.493 185.028 343.744 184.976 343.977 184.871C344.21 184.763 344.413 184.616 344.587 184.432C344.763 184.244 344.901 184.033 345 183.797C345.099 183.558 345.149 183.31 345.149 183.051C345.149 182.71 345.067 182.391 344.902 182.092C344.74 181.794 344.516 181.553 344.229 181.368C343.945 181.183 343.621 181.091 343.257 181.091ZM350.814 189.119C350.172 189.119 349.625 188.945 349.173 188.595C348.721 188.243 348.376 187.733 348.137 187.065C347.899 186.395 347.779 185.585 347.779 184.636C347.779 183.693 347.899 182.888 348.137 182.22C348.379 181.55 348.725 181.038 349.177 180.686C349.632 180.331 350.177 180.153 350.814 180.153C351.45 180.153 351.994 180.331 352.446 180.686C352.9 181.038 353.247 181.55 353.485 182.22C353.727 182.888 353.848 183.693 353.848 184.636C353.848 185.585 353.728 186.395 353.49 187.065C353.251 187.733 352.906 188.243 352.454 188.595C352.002 188.945 351.456 189.119 350.814 189.119ZM350.814 188.182C351.45 188.182 351.944 187.875 352.297 187.261C352.649 186.648 352.825 185.773 352.825 184.636C352.825 183.881 352.744 183.237 352.582 182.706C352.423 182.175 352.193 181.77 351.892 181.491C351.593 181.213 351.234 181.074 350.814 181.074C350.183 181.074 349.69 181.385 349.335 182.007C348.98 182.626 348.802 183.503 348.802 184.636C348.802 185.392 348.882 186.034 349.041 186.562C349.2 187.091 349.429 187.493 349.727 187.768C350.028 188.044 350.39 188.182 350.814 188.182ZM359.916 187.364V186.903C359.916 186.585 359.981 186.294 360.112 186.03C360.245 185.763 360.439 185.55 360.691 185.391C360.947 185.229 361.257 185.148 361.62 185.148C361.99 185.148 362.299 185.229 362.549 185.391C362.799 185.55 362.988 185.763 363.116 186.03C363.244 186.294 363.308 186.585 363.308 186.903V187.364C363.308 187.682 363.243 187.974 363.112 188.241C362.984 188.506 362.794 188.719 362.541 188.881C362.291 189.04 361.984 189.119 361.62 189.119C361.251 189.119 360.94 189.04 360.687 188.881C360.434 188.719 360.243 188.506 360.112 188.241C359.981 187.974 359.916 187.682 359.916 187.364ZM360.785 186.903V187.364C360.785 187.628 360.848 187.865 360.973 188.075C361.098 188.283 361.314 188.386 361.62 188.386C361.919 188.386 362.129 188.283 362.251 188.075C362.376 187.865 362.439 187.628 362.439 187.364V186.903C362.439 186.639 362.379 186.403 362.26 186.196C362.14 185.986 361.927 185.881 361.62 185.881C361.322 185.881 361.108 185.986 360.977 186.196C360.849 186.403 360.785 186.639 360.785 186.903ZM355.569 182.369V181.909C355.569 181.591 355.635 181.3 355.765 181.036C355.899 180.768 356.092 180.555 356.345 180.396C356.6 180.234 356.91 180.153 357.274 180.153C357.643 180.153 357.953 180.234 358.203 180.396C358.453 180.555 358.642 180.768 358.77 181.036C358.897 181.3 358.961 181.591 358.961 181.909V182.369C358.961 182.687 358.896 182.98 358.765 183.247C358.637 183.511 358.447 183.724 358.194 183.886C357.944 184.045 357.637 184.125 357.274 184.125C356.904 184.125 356.593 184.045 356.341 183.886C356.088 183.724 355.896 183.511 355.765 183.247C355.635 182.98 355.569 182.687 355.569 182.369ZM356.439 181.909V182.369C356.439 182.634 356.501 182.871 356.626 183.081C356.751 183.288 356.967 183.392 357.274 183.392C357.572 183.392 357.782 183.288 357.904 183.081C358.029 182.871 358.092 182.634 358.092 182.369V181.909C358.092 181.645 358.032 181.409 357.913 181.202C357.794 180.991 357.581 180.886 357.274 180.886C356.975 180.886 356.761 180.991 356.63 181.202C356.502 181.409 356.439 181.645 356.439 181.909ZM355.893 189L361.893 180.273H362.865L356.865 189H355.893Z" fill="white"/>
<path d="M64.0969 163.455C64.0458 163.023 63.8384 162.688 63.4747 162.449C63.1111 162.21 62.6651 162.091 62.1367 162.091C61.7503 162.091 61.4122 162.153 61.1225 162.278C60.8355 162.403 60.6111 162.575 60.4492 162.794C60.2901 163.013 60.2105 163.261 60.2105 163.54C60.2105 163.773 60.2659 163.973 60.3767 164.141C60.4904 164.305 60.6353 164.443 60.8114 164.554C60.9875 164.662 61.1722 164.751 61.3654 164.822C61.5586 164.891 61.7361 164.946 61.898 164.989L62.7844 165.227C63.0117 165.287 63.2645 165.369 63.5429 165.474C63.8242 165.58 64.0926 165.723 64.3483 165.905C64.6068 166.084 64.8199 166.314 64.9875 166.595C65.1551 166.876 65.239 167.222 65.239 167.631C65.239 168.102 65.1154 168.528 64.8682 168.909C64.6239 169.29 64.2659 169.592 63.7943 169.817C63.3256 170.041 62.756 170.153 62.0855 170.153C61.4605 170.153 60.9193 170.053 60.462 169.851C60.0074 169.649 59.6495 169.368 59.3881 169.007C59.1296 168.646 58.9833 168.227 58.9492 167.75H60.0401C60.0685 168.08 60.1793 168.352 60.3725 168.568C60.5685 168.781 60.8157 168.94 61.1139 169.045C61.4151 169.148 61.7389 169.199 62.0855 169.199C62.4889 169.199 62.8512 169.134 63.1722 169.003C63.4932 168.869 63.7475 168.685 63.935 168.449C64.1225 168.21 64.2162 167.932 64.2162 167.614C64.2162 167.324 64.1353 167.088 63.9733 166.906C63.8114 166.724 63.5983 166.577 63.3341 166.463C63.0699 166.349 62.7844 166.25 62.4776 166.165L61.4037 165.858C60.7219 165.662 60.1821 165.382 59.7844 165.018C59.3867 164.655 59.1878 164.179 59.1878 163.591C59.1878 163.102 59.3199 162.676 59.5841 162.312C59.8512 161.946 60.2091 161.662 60.658 161.46C61.1097 161.256 61.6139 161.153 62.1708 161.153C62.7333 161.153 63.2333 161.254 63.6708 161.456C64.1083 161.655 64.4549 161.928 64.7105 162.274C64.9691 162.621 65.1054 163.014 65.1196 163.455H64.0969ZM73.9992 164H72.9424C72.8799 163.696 72.7706 163.429 72.6143 163.199C72.4609 162.969 72.2734 162.776 72.0518 162.619C71.8331 162.46 71.5902 162.341 71.3231 162.261C71.0561 162.182 70.7777 162.142 70.4879 162.142C69.9595 162.142 69.4808 162.276 69.0518 162.543C68.6257 162.81 68.2862 163.203 68.0333 163.723C67.7833 164.243 67.6583 164.881 67.6583 165.636C67.6583 166.392 67.7833 167.03 68.0333 167.55C68.2862 168.07 68.6257 168.463 69.0518 168.73C69.4808 168.997 69.9595 169.131 70.4879 169.131C70.7777 169.131 71.0561 169.091 71.3231 169.011C71.5902 168.932 71.8331 168.814 72.0518 168.658C72.2734 168.499 72.4609 168.304 72.6143 168.074C72.7706 167.841 72.8799 167.574 72.9424 167.273H73.9992C73.9197 167.719 73.7748 168.118 73.5646 168.47C73.3544 168.822 73.093 169.122 72.7805 169.369C72.468 169.614 72.1171 169.8 71.7279 169.928C71.3416 170.055 70.9282 170.119 70.4879 170.119C69.7436 170.119 69.0816 169.938 68.5021 169.574C67.9225 169.21 67.4666 168.693 67.1342 168.023C66.8018 167.352 66.6356 166.557 66.6356 165.636C66.6356 164.716 66.8018 163.92 67.1342 163.25C67.4666 162.58 67.9225 162.062 68.5021 161.699C69.0816 161.335 69.7436 161.153 70.4879 161.153C70.9282 161.153 71.3416 161.217 71.7279 161.345C72.1171 161.473 72.468 161.661 72.7805 161.908C73.093 162.152 73.3544 162.45 73.5646 162.803C73.7748 163.152 73.9197 163.551 73.9992 164ZM80.4797 163.455C80.4286 163.023 80.2212 162.688 79.8576 162.449C79.4939 162.21 79.0479 162.091 78.5195 162.091C78.1331 162.091 77.7951 162.153 77.5053 162.278C77.2184 162.403 76.9939 162.575 76.832 162.794C76.6729 163.013 76.5934 163.261 76.5934 163.54C76.5934 163.773 76.6488 163.973 76.7595 164.141C76.8732 164.305 77.0181 164.443 77.1942 164.554C77.3703 164.662 77.555 164.751 77.7482 164.822C77.9414 164.891 78.1189 164.946 78.2809 164.989L79.1672 165.227C79.3945 165.287 79.6473 165.369 79.9257 165.474C80.207 165.58 80.4755 165.723 80.7311 165.905C80.9897 166.084 81.2027 166.314 81.3703 166.595C81.538 166.876 81.6218 167.222 81.6218 167.631C81.6218 168.102 81.4982 168.528 81.251 168.909C81.0067 169.29 80.6488 169.592 80.1772 169.817C79.7084 170.041 79.1388 170.153 78.4684 170.153C77.8434 170.153 77.3022 170.053 76.8448 169.851C76.3902 169.649 76.0323 169.368 75.7709 169.007C75.5124 168.646 75.3661 168.227 75.332 167.75H76.4229C76.4513 168.08 76.5621 168.352 76.7553 168.568C76.9513 168.781 77.1985 168.94 77.4968 169.045C77.7979 169.148 78.1218 169.199 78.4684 169.199C78.8718 169.199 79.234 169.134 79.555 169.003C79.876 168.869 80.1303 168.685 80.3178 168.449C80.5053 168.21 80.599 167.932 80.599 167.614C80.599 167.324 80.5181 167.088 80.3561 166.906C80.1942 166.724 79.9811 166.577 79.7169 166.463C79.4527 166.349 79.1672 166.25 78.8604 166.165L77.7865 165.858C77.1047 165.662 76.5649 165.382 76.1672 165.018C75.7695 164.655 75.5706 164.179 75.5706 163.591C75.5706 163.102 75.7027 162.676 75.9669 162.312C76.234 161.946 76.5919 161.662 77.0408 161.46C77.4925 161.256 77.9968 161.153 78.5536 161.153C79.1161 161.153 79.6161 161.254 80.0536 161.456C80.4911 161.655 80.8377 161.928 81.0934 162.274C81.3519 162.621 81.4882 163.014 81.5024 163.455H80.4797ZM88.1321 163.455C88.0809 163.023 87.8735 162.688 87.5099 162.449C87.1463 162.21 86.7002 162.091 86.1718 162.091C85.7855 162.091 85.4474 162.153 85.1576 162.278C84.8707 162.403 84.6463 162.575 84.4843 162.794C84.3252 163.013 84.2457 163.261 84.2457 163.54C84.2457 163.773 84.3011 163.973 84.4119 164.141C84.5255 164.305 84.6704 164.443 84.8465 164.554C85.0227 164.662 85.2073 164.751 85.4005 164.822C85.5937 164.891 85.7713 164.946 85.9332 164.989L86.8196 165.227C87.0468 165.287 87.2997 165.369 87.5781 165.474C87.8593 165.58 88.1278 165.723 88.3835 165.905C88.642 166.084 88.8551 166.314 89.0227 166.595C89.1903 166.876 89.2741 167.222 89.2741 167.631C89.2741 168.102 89.1505 168.528 88.9034 168.909C88.659 169.29 88.3011 169.592 87.8295 169.817C87.3608 170.041 86.7912 170.153 86.1207 170.153C85.4957 170.153 84.9545 170.053 84.4971 169.851C84.0426 169.649 83.6846 169.368 83.4233 169.007C83.1647 168.646 83.0184 168.227 82.9843 167.75H84.0752C84.1037 168.08 84.2144 168.352 84.4076 168.568C84.6037 168.781 84.8508 168.94 85.1491 169.045C85.4502 169.148 85.7741 169.199 86.1207 169.199C86.5241 169.199 86.8863 169.134 87.2073 169.003C87.5284 168.869 87.7826 168.685 87.9701 168.449C88.1576 168.21 88.2514 167.932 88.2514 167.614C88.2514 167.324 88.1704 167.088 88.0085 166.906C87.8465 166.724 87.6335 166.577 87.3693 166.463C87.1051 166.349 86.8196 166.25 86.5127 166.165L85.4389 165.858C84.7571 165.662 84.2173 165.382 83.8196 165.018C83.4218 164.655 83.223 164.179 83.223 163.591C83.223 163.102 83.3551 162.676 83.6193 162.312C83.8863 161.946 84.2443 161.662 84.6931 161.46C85.1448 161.256 85.6491 161.153 86.2059 161.153C86.7684 161.153 87.2684 161.254 87.7059 161.456C88.1434 161.655 88.49 161.928 88.7457 162.274C89.0042 162.621 89.1406 163.014 89.1548 163.455H88.1321Z" fill="white"/>
<rect x="65.2222" y="181" width="260" height="7" rx="3.5" fill="white"/>
<rect x="59.4445" y="181" width="228.222" height="7" rx="3.5" fill="#EB4103"/>
<path d="M340.439 229L344.343 221.278V221.21H339.843V220.273H345.434V221.261L341.547 229H340.439ZM349.681 229.119C349.039 229.119 348.492 228.945 348.041 228.595C347.589 228.243 347.244 227.733 347.005 227.065C346.766 226.395 346.647 225.585 346.647 224.636C346.647 223.693 346.766 222.888 347.005 222.22C347.247 221.55 347.593 221.038 348.045 220.686C348.499 220.331 349.045 220.153 349.681 220.153C350.318 220.153 350.862 220.331 351.313 220.686C351.768 221.038 352.114 221.55 352.353 222.22C352.595 222.888 352.715 223.693 352.715 224.636C352.715 225.585 352.596 226.395 352.357 227.065C352.119 227.733 351.774 228.243 351.322 228.595C350.87 228.945 350.323 229.119 349.681 229.119ZM349.681 228.182C350.318 228.182 350.812 227.875 351.164 227.261C351.516 226.648 351.693 225.773 351.693 224.636C351.693 223.881 351.612 223.237 351.45 222.706C351.291 222.175 351.06 221.77 350.759 221.491C350.461 221.213 350.102 221.074 349.681 221.074C349.05 221.074 348.558 221.385 348.202 222.007C347.847 222.626 347.67 223.503 347.67 224.636C347.67 225.392 347.749 226.034 347.908 226.562C348.068 227.091 348.296 227.493 348.595 227.768C348.896 228.044 349.258 228.182 349.681 228.182ZM358.783 227.364V226.903C358.783 226.585 358.849 226.294 358.979 226.03C359.113 225.763 359.306 225.55 359.559 225.391C359.815 225.229 360.124 225.148 360.488 225.148C360.857 225.148 361.167 225.229 361.417 225.391C361.667 225.55 361.856 225.763 361.984 226.03C362.112 226.294 362.175 226.585 362.175 226.903V227.364C362.175 227.682 362.11 227.974 361.979 228.241C361.852 228.506 361.661 228.719 361.408 228.881C361.158 229.04 360.852 229.119 360.488 229.119C360.119 229.119 359.808 229.04 359.555 228.881C359.302 228.719 359.11 228.506 358.979 228.241C358.849 227.974 358.783 227.682 358.783 227.364ZM359.653 226.903V227.364C359.653 227.628 359.715 227.865 359.84 228.075C359.965 228.283 360.181 228.386 360.488 228.386C360.786 228.386 360.997 228.283 361.119 228.075C361.244 227.865 361.306 227.628 361.306 227.364V226.903C361.306 226.639 361.247 226.403 361.127 226.196C361.008 225.986 360.795 225.881 360.488 225.881C360.19 225.881 359.975 225.986 359.845 226.196C359.717 226.403 359.653 226.639 359.653 226.903ZM354.437 222.369V221.909C354.437 221.591 354.502 221.3 354.633 221.036C354.766 220.768 354.96 220.555 355.212 220.396C355.468 220.234 355.778 220.153 356.141 220.153C356.511 220.153 356.82 220.234 357.07 220.396C357.32 220.555 357.509 220.768 357.637 221.036C357.765 221.3 357.829 221.591 357.829 221.909V222.369C357.829 222.687 357.764 222.98 357.633 223.247C357.505 223.511 357.315 223.724 357.062 223.886C356.812 224.045 356.505 224.125 356.141 224.125C355.772 224.125 355.461 224.045 355.208 223.886C354.955 223.724 354.764 223.511 354.633 223.247C354.502 222.98 354.437 222.687 354.437 222.369ZM355.306 221.909V222.369C355.306 222.634 355.369 222.871 355.494 223.081C355.619 223.288 355.835 223.392 356.141 223.392C356.44 223.392 356.65 223.288 356.772 223.081C356.897 222.871 356.96 222.634 356.96 222.369V221.909C356.96 221.645 356.9 221.409 356.781 221.202C356.661 220.991 356.448 220.886 356.141 220.886C355.843 220.886 355.629 220.991 355.498 221.202C355.37 221.409 355.306 221.645 355.306 221.909ZM354.761 229L360.761 220.273H361.732L355.732 229H354.761Z" fill="white"/>
<path d="M62.3977 201.273H63.4545V207.511C63.4545 208.068 63.3523 208.541 63.1477 208.93C62.9432 209.32 62.6548 209.615 62.2827 209.817C61.9105 210.018 61.4716 210.119 60.9659 210.119C60.4886 210.119 60.0639 210.033 59.6918 209.859C59.3196 209.683 59.027 209.433 58.8139 209.109C58.6009 208.786 58.4943 208.401 58.4943 207.955H59.5341C59.5341 208.202 59.5952 208.418 59.7173 208.602C59.8423 208.784 60.0128 208.926 60.2287 209.028C60.4446 209.131 60.6903 209.182 60.9659 209.182C61.2699 209.182 61.5284 209.118 61.7415 208.99C61.9545 208.862 62.1165 208.675 62.2273 208.428C62.3409 208.178 62.3977 207.872 62.3977 207.511V201.273ZM67.3622 210.153C66.9474 210.153 66.571 210.075 66.233 209.919C65.8949 209.76 65.6264 209.531 65.4276 209.233C65.2287 208.932 65.1293 208.568 65.1293 208.142C65.1293 207.767 65.2031 207.463 65.3509 207.23C65.4986 206.994 65.696 206.81 65.9432 206.676C66.1903 206.543 66.4631 206.443 66.7614 206.378C67.0625 206.31 67.3651 206.256 67.669 206.216C68.0668 206.165 68.3892 206.126 68.6364 206.101C68.8864 206.072 69.0682 206.026 69.1818 205.96C69.2983 205.895 69.3565 205.781 69.3565 205.619V205.585C69.3565 205.165 69.2415 204.838 69.0114 204.605C68.7841 204.372 68.4389 204.256 67.9759 204.256C67.4957 204.256 67.1193 204.361 66.8466 204.571C66.5739 204.781 66.3821 205.006 66.2713 205.244L65.3168 204.903C65.4872 204.506 65.7145 204.196 65.9986 203.974C66.2855 203.75 66.598 203.594 66.9361 203.506C67.277 203.415 67.6122 203.369 67.9418 203.369C68.152 203.369 68.3935 203.395 68.6662 203.446C68.9418 203.494 69.2074 203.595 69.4631 203.749C69.7216 203.902 69.9361 204.134 70.1065 204.443C70.277 204.753 70.3622 205.168 70.3622 205.688V210H69.3565V209.114H69.3054C69.2372 209.256 69.1236 209.408 68.9645 209.57C68.8054 209.732 68.5938 209.869 68.3295 209.983C68.0653 210.097 67.7429 210.153 67.3622 210.153ZM67.5156 209.25C67.9134 209.25 68.2486 209.172 68.5213 209.016C68.7969 208.859 69.0043 208.658 69.1435 208.411C69.2855 208.163 69.3565 207.903 69.3565 207.631V206.71C69.3139 206.761 69.2202 206.808 69.0753 206.851C68.9332 206.891 68.7685 206.926 68.581 206.957C68.3963 206.986 68.2159 207.011 68.0398 207.034C67.8665 207.054 67.7259 207.071 67.6179 207.085C67.3565 207.119 67.1122 207.175 66.8849 207.251C66.6605 207.325 66.4787 207.437 66.3395 207.588C66.2031 207.736 66.1349 207.937 66.1349 208.193C66.1349 208.543 66.2642 208.807 66.5227 208.986C66.7841 209.162 67.1151 209.25 67.5156 209.25ZM77.3157 203.455L74.8952 210H73.8725L71.4521 203.455H72.543L74.3498 208.67H74.418L76.2248 203.455H77.3157ZM80.37 210.153C79.9553 210.153 79.5788 210.075 79.2408 209.919C78.9027 209.76 78.6342 209.531 78.4354 209.233C78.2365 208.932 78.1371 208.568 78.1371 208.142C78.1371 207.767 78.2109 207.463 78.3587 207.23C78.5064 206.994 78.7038 206.81 78.951 206.676C79.1982 206.543 79.4709 206.443 79.7692 206.378C80.0703 206.31 80.3729 206.256 80.6768 206.216C81.0746 206.165 81.397 206.126 81.6442 206.101C81.8942 206.072 82.076 206.026 82.1896 205.96C82.3061 205.895 82.3643 205.781 82.3643 205.619V205.585C82.3643 205.165 82.2493 204.838 82.0192 204.605C81.7919 204.372 81.4467 204.256 80.9837 204.256C80.5036 204.256 80.1271 204.361 79.8544 204.571C79.5817 204.781 79.3899 205.006 79.2791 205.244L78.3246 204.903C78.495 204.506 78.7223 204.196 79.0064 203.974C79.2933 203.75 79.6058 203.594 79.9439 203.506C80.2848 203.415 80.62 203.369 80.9496 203.369C81.1598 203.369 81.4013 203.395 81.674 203.446C81.9496 203.494 82.2152 203.595 82.4709 203.749C82.7294 203.902 82.9439 204.134 83.1143 204.443C83.2848 204.753 83.37 205.168 83.37 205.688V210H82.3643V209.114H82.3132C82.245 209.256 82.1314 209.408 81.9723 209.57C81.8132 209.732 81.6016 209.869 81.3374 209.983C81.0732 210.097 80.7507 210.153 80.37 210.153ZM80.5234 209.25C80.9212 209.25 81.2564 209.172 81.5291 209.016C81.8047 208.859 82.0121 208.658 82.1513 208.411C82.2933 208.163 82.3643 207.903 82.3643 207.631V206.71C82.3217 206.761 82.228 206.808 82.0831 206.851C81.9411 206.891 81.7763 206.926 81.5888 206.957C81.4041 206.986 81.2237 207.011 81.0476 207.034C80.8743 207.054 80.7337 207.071 80.6257 207.085C80.3643 207.119 80.12 207.175 79.8928 207.251C79.6683 207.325 79.4865 207.437 79.3473 207.588C79.2109 207.736 79.1428 207.937 79.1428 208.193C79.1428 208.543 79.272 208.807 79.5305 208.986C79.7919 209.162 80.1229 209.25 80.5234 209.25ZM90.1147 203.455C90.0636 203.023 89.8562 202.688 89.4925 202.449C89.1289 202.21 88.6829 202.091 88.1545 202.091C87.7681 202.091 87.43 202.153 87.1403 202.278C86.8533 202.403 86.6289 202.575 86.467 202.794C86.3079 203.013 86.2283 203.261 86.2283 203.54C86.2283 203.773 86.2837 203.973 86.3945 204.141C86.5082 204.305 86.6531 204.443 86.8292 204.554C87.0053 204.662 87.19 204.751 87.3832 204.822C87.5763 204.891 87.7539 204.946 87.9158 204.989L88.8022 205.227C89.0295 205.287 89.2823 205.369 89.5607 205.474C89.842 205.58 90.1104 205.723 90.3661 205.905C90.6246 206.084 90.8377 206.314 91.0053 206.595C91.1729 206.876 91.2567 207.222 91.2567 207.631C91.2567 208.102 91.1332 208.528 90.886 208.909C90.6417 209.29 90.2837 209.592 89.8121 209.817C89.3434 210.041 88.7738 210.153 88.1033 210.153C87.4783 210.153 86.9371 210.053 86.4798 209.851C86.0252 209.649 85.6673 209.368 85.4059 209.007C85.1474 208.646 85.0011 208.227 84.967 207.75H86.0579C86.0863 208.08 86.1971 208.352 86.3903 208.568C86.5863 208.781 86.8335 208.94 87.1317 209.045C87.4329 209.148 87.7567 209.199 88.1033 209.199C88.5067 209.199 88.869 209.134 89.19 209.003C89.511 208.869 89.7653 208.685 89.9528 208.449C90.1403 208.21 90.234 207.932 90.234 207.614C90.234 207.324 90.1531 207.088 89.9911 206.906C89.8292 206.724 89.6161 206.577 89.3519 206.463C89.0877 206.349 88.8022 206.25 88.4954 206.165L87.4215 205.858C86.7397 205.662 86.1999 205.382 85.8022 205.018C85.4045 204.655 85.2056 204.179 85.2056 203.591C85.2056 203.102 85.3377 202.676 85.6019 202.312C85.869 201.946 86.2269 201.662 86.6758 201.46C87.1275 201.256 87.6317 201.153 88.1886 201.153C88.7511 201.153 89.2511 201.254 89.6886 201.456C90.1261 201.655 90.4727 201.928 90.7283 202.274C90.9869 202.621 91.1232 203.014 91.1374 203.455H90.1147ZM95.517 210.136C94.9034 210.136 94.375 209.991 93.9318 209.702C93.4886 209.412 93.1477 209.013 92.9091 208.504C92.6705 207.996 92.5511 207.415 92.5511 206.761C92.5511 206.097 92.6733 205.51 92.9176 205.001C93.1648 204.49 93.5085 204.091 93.9489 203.804C94.392 203.514 94.9091 203.369 95.5 203.369C95.9602 203.369 96.375 203.455 96.7443 203.625C97.1136 203.795 97.4162 204.034 97.652 204.341C97.8878 204.648 98.0341 205.006 98.0909 205.415H97.0852C97.0085 205.116 96.8381 204.852 96.5739 204.622C96.3125 204.389 95.9602 204.273 95.517 204.273C95.125 204.273 94.7813 204.375 94.4858 204.58C94.1932 204.781 93.9645 205.067 93.7997 205.436C93.6378 205.803 93.5568 206.233 93.5568 206.727C93.5568 207.233 93.6364 207.673 93.7955 208.048C93.9574 208.423 94.1847 208.714 94.4773 208.922C94.7727 209.129 95.1193 209.233 95.517 209.233C95.7784 209.233 96.0156 209.188 96.2287 209.097C96.4418 209.006 96.6222 208.875 96.7699 208.705C96.9176 208.534 97.0227 208.33 97.0852 208.091H98.0909C98.0341 208.477 97.8935 208.825 97.669 209.135C97.4474 209.442 97.1534 209.686 96.7869 209.868C96.4233 210.047 96 210.136 95.517 210.136ZM99.5611 210V203.455H100.533V204.443H100.601C100.72 204.119 100.936 203.857 101.249 203.655C101.561 203.453 101.913 203.352 102.305 203.352C102.379 203.352 102.472 203.354 102.582 203.357C102.693 203.359 102.777 203.364 102.834 203.369V204.392C102.8 204.384 102.722 204.371 102.599 204.354C102.48 204.334 102.354 204.324 102.22 204.324C101.902 204.324 101.618 204.391 101.368 204.524C101.121 204.655 100.925 204.837 100.78 205.07C100.638 205.3 100.567 205.562 100.567 205.858V210H99.5611ZM104.026 210V203.455H105.032V210H104.026ZM104.537 202.364C104.341 202.364 104.172 202.297 104.03 202.163C103.891 202.03 103.821 201.869 103.821 201.682C103.821 201.494 103.891 201.334 104.03 201.2C104.172 201.067 104.341 201 104.537 201C104.733 201 104.901 201.067 105.04 201.2C105.182 201.334 105.253 201.494 105.253 201.682C105.253 201.869 105.182 202.03 105.04 202.163C104.901 202.297 104.733 202.364 104.537 202.364ZM106.874 212.455V203.455H107.845V204.494H107.964C108.038 204.381 108.141 204.236 108.271 204.06C108.405 203.881 108.595 203.722 108.842 203.582C109.092 203.44 109.43 203.369 109.857 203.369C110.408 203.369 110.893 203.507 111.314 203.783C111.734 204.058 112.063 204.449 112.298 204.955C112.534 205.46 112.652 206.057 112.652 206.744C112.652 207.438 112.534 208.038 112.298 208.547C112.063 209.053 111.736 209.445 111.318 209.723C110.901 209.999 110.419 210.136 109.874 210.136C109.453 210.136 109.116 210.067 108.864 209.928C108.611 209.786 108.416 209.625 108.28 209.446C108.143 209.264 108.038 209.114 107.964 208.994H107.879V212.455H106.874ZM107.862 206.727C107.862 207.222 107.935 207.658 108.08 208.036C108.224 208.411 108.436 208.705 108.714 208.918C108.993 209.128 109.334 209.233 109.737 209.233C110.158 209.233 110.509 209.122 110.79 208.901C111.074 208.676 111.287 208.375 111.429 207.997C111.574 207.616 111.646 207.193 111.646 206.727C111.646 206.267 111.575 205.852 111.433 205.483C111.294 205.111 111.082 204.817 110.798 204.601C110.517 204.382 110.163 204.273 109.737 204.273C109.328 204.273 108.984 204.376 108.706 204.584C108.428 204.788 108.217 205.075 108.075 205.445C107.933 205.811 107.862 206.239 107.862 206.727ZM117.033 203.455V204.307H113.641V203.455H117.033ZM114.629 201.886H115.635V208.125C115.635 208.409 115.676 208.622 115.759 208.764C115.844 208.903 115.952 208.997 116.082 209.045C116.216 209.091 116.357 209.114 116.504 209.114C116.615 209.114 116.706 209.108 116.777 209.097C116.848 209.082 116.905 209.071 116.947 209.062L117.152 209.966C117.084 209.991 116.989 210.017 116.866 210.043C116.744 210.071 116.589 210.085 116.402 210.085C116.118 210.085 115.839 210.024 115.567 209.902C115.297 209.78 115.072 209.594 114.893 209.344C114.717 209.094 114.629 208.778 114.629 208.398V201.886Z" fill="white"/>
<rect x="65.2222" y="221" width="260" height="7" rx="3.5" fill="white"/>
<rect x="59.4444" y="221" width="180.556" height="7" rx="3.5" fill="#6403EB"/>
<path d="M343.3 269.119C342.8 269.119 342.349 269.02 341.949 268.821C341.548 268.622 341.227 268.349 340.986 268.003C340.744 267.656 340.612 267.261 340.589 266.818H341.612C341.652 267.213 341.831 267.54 342.149 267.798C342.47 268.054 342.854 268.182 343.3 268.182C343.658 268.182 343.976 268.098 344.254 267.93C344.535 267.763 344.756 267.533 344.915 267.24C345.077 266.945 345.158 266.611 345.158 266.239C345.158 265.858 345.074 265.518 344.906 265.22C344.741 264.919 344.514 264.682 344.224 264.509C343.935 264.335 343.604 264.247 343.232 264.244C342.964 264.241 342.69 264.283 342.409 264.368C342.128 264.45 341.896 264.557 341.714 264.688L340.726 264.568L341.254 260.273H345.788V261.21H342.141L341.834 263.784H341.885C342.064 263.642 342.288 263.524 342.558 263.43C342.828 263.337 343.109 263.29 343.402 263.29C343.936 263.29 344.412 263.418 344.83 263.673C345.25 263.926 345.58 264.273 345.818 264.713C346.06 265.153 346.18 265.656 346.18 266.222C346.18 266.778 346.055 267.276 345.805 267.713C345.558 268.148 345.217 268.491 344.783 268.744C344.348 268.994 343.854 269.119 343.3 269.119ZM350.72 269.119C350.078 269.119 349.531 268.945 349.079 268.595C348.627 268.243 348.282 267.733 348.044 267.065C347.805 266.395 347.686 265.585 347.686 264.636C347.686 263.693 347.805 262.888 348.044 262.22C348.285 261.55 348.632 261.038 349.083 260.686C349.538 260.331 350.083 260.153 350.72 260.153C351.356 260.153 351.9 260.331 352.352 260.686C352.806 261.038 353.153 261.55 353.392 262.22C353.633 262.888 353.754 263.693 353.754 264.636C353.754 265.585 353.635 266.395 353.396 267.065C353.157 267.733 352.812 268.243 352.36 268.595C351.909 268.945 351.362 269.119 350.72 269.119ZM350.72 268.182C351.356 268.182 351.85 267.875 352.203 267.261C352.555 266.648 352.731 265.773 352.731 264.636C352.731 263.881 352.65 263.237 352.488 262.706C352.329 262.175 352.099 261.77 351.798 261.491C351.5 261.213 351.14 261.074 350.72 261.074C350.089 261.074 349.596 261.385 349.241 262.007C348.886 262.626 348.708 263.503 348.708 264.636C348.708 265.392 348.788 266.034 348.947 266.562C349.106 267.091 349.335 267.493 349.633 267.768C349.934 268.044 350.297 268.182 350.72 268.182ZM359.822 267.364V266.903C359.822 266.585 359.887 266.294 360.018 266.03C360.152 265.763 360.345 265.55 360.598 265.391C360.853 265.229 361.163 265.148 361.527 265.148C361.896 265.148 362.206 265.229 362.456 265.391C362.706 265.55 362.895 265.763 363.022 266.03C363.15 266.294 363.214 266.585 363.214 266.903V267.364C363.214 267.682 363.149 267.974 363.018 268.241C362.89 268.506 362.7 268.719 362.447 268.881C362.197 269.04 361.89 269.119 361.527 269.119C361.157 269.119 360.846 269.04 360.593 268.881C360.341 268.719 360.149 268.506 360.018 268.241C359.887 267.974 359.822 267.682 359.822 267.364ZM360.691 266.903V267.364C360.691 267.628 360.754 267.865 360.879 268.075C361.004 268.283 361.22 268.386 361.527 268.386C361.825 268.386 362.035 268.283 362.157 268.075C362.282 267.865 362.345 267.628 362.345 267.364V266.903C362.345 266.639 362.285 266.403 362.166 266.196C362.047 265.986 361.833 265.881 361.527 265.881C361.228 265.881 361.014 265.986 360.883 266.196C360.755 266.403 360.691 266.639 360.691 266.903ZM355.475 262.369V261.909C355.475 261.591 355.541 261.3 355.672 261.036C355.805 260.768 355.998 260.555 356.251 260.396C356.507 260.234 356.816 260.153 357.18 260.153C357.549 260.153 357.859 260.234 358.109 260.396C358.359 260.555 358.548 260.768 358.676 261.036C358.804 261.3 358.868 261.591 358.868 261.909V262.369C358.868 262.687 358.802 262.98 358.672 263.247C358.544 263.511 358.353 263.724 358.1 263.886C357.85 264.045 357.544 264.125 357.18 264.125C356.811 264.125 356.5 264.045 356.247 263.886C355.994 263.724 355.802 263.511 355.672 263.247C355.541 262.98 355.475 262.687 355.475 262.369ZM356.345 261.909V262.369C356.345 262.634 356.407 262.871 356.532 263.081C356.657 263.288 356.873 263.392 357.18 263.392C357.478 263.392 357.689 263.288 357.811 263.081C357.936 262.871 357.998 262.634 357.998 262.369V261.909C357.998 261.645 357.939 261.409 357.819 261.202C357.7 260.991 357.487 260.886 357.18 260.886C356.882 260.886 356.667 260.991 356.537 261.202C356.409 261.409 356.345 261.645 356.345 261.909ZM355.799 269L361.799 260.273H362.771L356.771 269H355.799Z" fill="white"/>
<path d="M59.0568 250V241.273H62.0057C62.6875 241.273 63.2472 241.389 63.6847 241.622C64.1222 241.852 64.446 242.169 64.6562 242.572C64.8665 242.976 64.9716 243.435 64.9716 243.949C64.9716 244.463 64.8665 244.919 64.6562 245.317C64.446 245.714 64.1236 246.027 63.6889 246.254C63.2543 246.479 62.6989 246.591 62.0227 246.591H59.6364V245.636H61.9886C62.4545 245.636 62.8295 245.568 63.1136 245.432C63.4006 245.295 63.608 245.102 63.7358 244.852C63.8665 244.599 63.9318 244.298 63.9318 243.949C63.9318 243.599 63.8665 243.294 63.7358 243.033C63.6051 242.771 63.3963 242.57 63.1094 242.428C62.8224 242.283 62.4432 242.21 61.9716 242.21H60.1136V250H59.0568ZM63.1648 246.08L65.3125 250H64.0852L61.9716 246.08H63.1648ZM69.2702 250.136C68.6396 250.136 68.0955 249.997 67.6381 249.719C67.1836 249.438 66.8327 249.045 66.5856 248.543C66.3413 248.037 66.2191 247.449 66.2191 246.778C66.2191 246.108 66.3413 245.517 66.5856 245.006C66.8327 244.491 67.1765 244.091 67.6168 243.804C68.06 243.514 68.5771 243.369 69.168 243.369C69.5089 243.369 69.8455 243.426 70.1779 243.54C70.5103 243.653 70.8129 243.838 71.0856 244.094C71.3583 244.347 71.5756 244.682 71.7376 245.099C71.8995 245.517 71.9805 246.031 71.9805 246.642V247.068H66.935V246.199H70.9577C70.9577 245.83 70.8839 245.5 70.7362 245.21C70.5913 244.92 70.3839 244.692 70.114 244.524C69.8469 244.357 69.5316 244.273 69.168 244.273C68.7674 244.273 68.4208 244.372 68.1282 244.571C67.8384 244.767 67.6154 245.023 67.4592 245.338C67.3029 245.653 67.2248 245.991 67.2248 246.352V246.932C67.2248 247.426 67.31 247.845 67.4805 248.189C67.6538 248.53 67.8938 248.79 68.2006 248.969C68.5075 249.145 68.864 249.233 69.2702 249.233C69.5344 249.233 69.7731 249.196 69.9862 249.122C70.2021 249.045 70.3881 248.932 70.5444 248.781C70.7006 248.628 70.8214 248.437 70.9066 248.21L71.8782 248.483C71.7759 248.812 71.604 249.102 71.3626 249.352C71.1211 249.599 70.8228 249.793 70.4677 249.932C70.1126 250.068 69.7134 250.136 69.2702 250.136ZM75.4364 250.153C75.0217 250.153 74.6452 250.075 74.3072 249.919C73.9691 249.76 73.7006 249.531 73.5018 249.233C73.3029 248.932 73.2035 248.568 73.2035 248.142C73.2035 247.767 73.2773 247.463 73.4251 247.23C73.5728 246.994 73.7702 246.81 74.0174 246.676C74.2646 246.543 74.5373 246.443 74.8356 246.378C75.1367 246.31 75.4393 246.256 75.7433 246.216C76.141 246.165 76.4634 246.126 76.7106 246.101C76.9606 246.072 77.1424 246.026 77.256 245.96C77.3725 245.895 77.4308 245.781 77.4308 245.619V245.585C77.4308 245.165 77.3157 244.838 77.0856 244.605C76.8583 244.372 76.5131 244.256 76.0501 244.256C75.57 244.256 75.1935 244.361 74.9208 244.571C74.6481 244.781 74.4563 245.006 74.3455 245.244L73.391 244.903C73.5614 244.506 73.7887 244.196 74.0728 243.974C74.3597 243.75 74.6722 243.594 75.0103 243.506C75.3512 243.415 75.6864 243.369 76.016 243.369C76.2262 243.369 76.4677 243.395 76.7404 243.446C77.016 243.494 77.2816 243.595 77.5373 243.749C77.7958 243.902 78.0103 244.134 78.1808 244.443C78.3512 244.753 78.4364 245.168 78.4364 245.688V250H77.4308V249.114H77.3796C77.3114 249.256 77.1978 249.408 77.0387 249.57C76.8796 249.732 76.668 249.869 76.4038 249.983C76.1396 250.097 75.8171 250.153 75.4364 250.153ZM75.5898 249.25C75.9876 249.25 76.3228 249.172 76.5955 249.016C76.8711 248.859 77.0785 248.658 77.2177 248.411C77.3597 248.163 77.4308 247.903 77.4308 247.631V246.71C77.3881 246.761 77.2944 246.808 77.1495 246.851C77.0075 246.891 76.8427 246.926 76.6552 246.957C76.4705 246.986 76.2901 247.011 76.114 247.034C75.9407 247.054 75.8001 247.071 75.6921 247.085C75.4308 247.119 75.1864 247.175 74.9592 247.251C74.7347 247.325 74.5529 247.437 74.4137 247.588C74.2773 247.736 74.2092 247.937 74.2092 248.193C74.2092 248.543 74.3384 248.807 74.5969 248.986C74.8583 249.162 75.1893 249.25 75.5898 249.25ZM82.9311 250.136C82.3175 250.136 81.7891 249.991 81.3459 249.702C80.9027 249.412 80.5618 249.013 80.3232 248.504C80.0845 247.996 79.9652 247.415 79.9652 246.761C79.9652 246.097 80.0874 245.51 80.3317 245.001C80.5788 244.49 80.9226 244.091 81.3629 243.804C81.8061 243.514 82.3232 243.369 82.9141 243.369C83.3743 243.369 83.7891 243.455 84.1584 243.625C84.5277 243.795 84.8303 244.034 85.0661 244.341C85.3018 244.648 85.4482 245.006 85.505 245.415H84.4993C84.4226 245.116 84.2521 244.852 83.9879 244.622C83.7266 244.389 83.3743 244.273 82.9311 244.273C82.5391 244.273 82.1953 244.375 81.8999 244.58C81.6072 244.781 81.3786 245.067 81.2138 245.436C81.0518 245.803 80.9709 246.233 80.9709 246.727C80.9709 247.233 81.0504 247.673 81.2095 248.048C81.3714 248.423 81.5987 248.714 81.8913 248.922C82.1868 249.129 82.5334 249.233 82.9311 249.233C83.1925 249.233 83.4297 249.188 83.6428 249.097C83.8558 249.006 84.0362 248.875 84.1839 248.705C84.3317 248.534 84.4368 248.33 84.4993 248.091H85.505C85.4482 248.477 85.3075 248.825 85.0831 249.135C84.8615 249.442 84.5675 249.686 84.201 249.868C83.8374 250.047 83.4141 250.136 82.9311 250.136ZM89.8217 243.455V244.307H86.4297V243.455H89.8217ZM87.4183 241.886H88.424V248.125C88.424 248.409 88.4652 248.622 88.5476 248.764C88.6328 248.903 88.7408 248.997 88.8714 249.045C89.005 249.091 89.1456 249.114 89.2933 249.114C89.4041 249.114 89.495 249.108 89.5661 249.097C89.6371 249.082 89.6939 249.071 89.7365 249.062L89.9411 249.966C89.8729 249.991 89.7777 250.017 89.6555 250.043C89.5334 250.071 89.3786 250.085 89.1911 250.085C88.907 250.085 88.6286 250.024 88.3558 249.902C88.0859 249.78 87.8615 249.594 87.6825 249.344C87.5064 249.094 87.4183 248.778 87.4183 248.398V241.886Z" fill="white"/>
<rect x="65.2222" y="261" width="260" height="7" rx="3.5" fill="white"/>
<rect x="59.4444" y="261" width="137.222" height="7" rx="3.5" fill="#EB03A5"/>
<line x1="135" y1="50" x2="295" y2="50" stroke="#EB4103" stroke-width="2"/>
</svg>
